<svg xmlns="http://www.w3.org/2000/svg" version="1.1" xmlns:xlink="http://www.w3.org/1999/xlink" xmlns:svgjs="http://svgjs.dev/svgjs" width="1000" height="1000" viewBox="0 0 1000 1000"><rect width="1000" height="1000" fill="#ffffff"></rect><g transform="matrix(0.7,0,0,0.7,149.57575757575756,373.4643281232816)"><svg viewBox="0 0 396 143" data-background-color="#ffffff" preserveAspectRatio="xMidYMid meet" height="361" width="1000" xmlns="http://www.w3.org/2000/svg" xmlns:xlink="http://www.w3.org/1999/xlink"><g id="tight-bounds" transform="matrix(1,0,0,1,0.2400000000000091,0.10506956221104247)"><svg viewBox="0 0 395.52 142.7898608755779" height="142.7898608755779" width="395.52"><g><svg viewBox="0 0 677.0613187405609 244.43135999999998" height="142.7898608755779" width="395.52"><g transform="matrix(1,0,0,1,281.5413187405608,72.98229547908278)"><svg viewBox="0 0 395.52 98.46676904183443" height="98.46676904183443" width="395.52"><g id="textblocktransform"><svg viewBox="0 0 395.52 98.46676904183443" height="98.46676904183443" width="395.52" id="textblock"><g><svg viewBox="0 0 395.52 62.87798631044379" height="62.87798631044379" width="395.52"><g transform="matrix(1,0,0,1,0,0)"><svg width="395.52" viewBox="2.05 -35.5 226.42 36" height="62.87798631044379" data-palette-color="#ea3c12"><path d="M2.05 0L2.05-35 10.15-35Q14.25-35 16.3-32.8 18.35-30.6 18.35-26.35L18.35-26.35 18.35-22.9Q18.35-18.65 16.3-16.45 14.25-14.25 10.15-14.25L10.15-14.25 7.55-14.25 7.55 0 2.05 0ZM7.55-19.25L10.15-19.25Q11.5-19.25 12.18-20 12.85-20.75 12.85-22.55L12.85-22.55 12.85-26.7Q12.85-28.5 12.18-29.25 11.5-30 10.15-30L10.15-30 7.55-30 7.55-19.25ZM21.35 0L21.35-35 26.85-35 26.85 0 21.35 0ZM30.95 0L30.95-35 37.84-35 43.2-14.05 43.3-14.05 43.3-35 48.2-35 48.2 0 42.55 0 35.95-25.55 35.84-25.55 35.84 0 30.95 0ZM52.29 0L52.29-35 59.19-35 64.54-14.05 64.64-14.05 64.64-35 69.54-35 69.54 0 63.89 0 57.29-25.55 57.19-25.55 57.19 0 52.29 0ZM72.19 0L77.89-35 85.34-35 91.04 0 85.54 0 84.54-6.95 84.54-6.85 78.29-6.85 77.29 0 72.19 0ZM78.94-11.6L83.89-11.6 81.44-28.9 81.34-28.9 78.94-11.6ZM101.34 0.5Q97.39 0.5 95.31-1.75 93.24-4 93.24-8.1L93.24-8.1 93.24-26.9Q93.24-31 95.31-33.25 97.39-35.5 101.34-35.5L101.34-35.5Q105.29-35.5 107.36-33.25 109.44-31 109.44-26.9L109.44-26.9 109.44-23.2 104.24-23.2 104.24-27.25Q104.24-30.5 101.49-30.5L101.49-30.5Q98.74-30.5 98.74-27.25L98.74-27.25 98.74-7.7Q98.74-4.5 101.49-4.5L101.49-4.5Q104.24-4.5 104.24-7.7L104.24-7.7 104.24-13.05 109.44-13.05 109.44-8.1Q109.44-4 107.36-1.75 105.29 0.5 101.34 0.5L101.34 0.5ZM112.74 0L112.74-35 118.24-35 118.24-5 127.29-5 127.29 0 112.74 0ZM129.93 0L129.93-35 144.93-35 144.93-30 135.43-30 135.43-20.75 142.98-20.75 142.98-15.75 135.43-15.75 135.43-5 144.93-5 144.93 0 129.93 0ZM160.38 0L160.38-30 154.63-30 154.63-35 171.63-35 171.63-30 165.88-30 165.88 0 160.38 0ZM174.28 0L174.28-35 189.28-35 189.28-30 179.78-30 179.78-20.75 187.33-20.75 187.33-15.75 179.78-15.75 179.78-5 189.28-5 189.28 0 174.28 0ZM200.17 0.5Q196.22 0.5 194.15-1.75 192.07-4 192.07-8.1L192.07-8.1 192.07-26.9Q192.07-31 194.15-33.25 196.22-35.5 200.17-35.5L200.17-35.5Q204.12-35.5 206.2-33.25 208.27-31 208.27-26.9L208.27-26.9 208.27-23.2 203.07-23.2 203.07-27.25Q203.07-30.5 200.32-30.5L200.32-30.5Q197.57-30.5 197.57-27.25L197.57-27.25 197.57-7.7Q197.57-4.5 200.32-4.5L200.32-4.5Q203.07-4.5 203.07-7.7L203.07-7.7 203.07-13.05 208.27-13.05 208.27-8.1Q208.27-4 206.2-1.75 204.12 0.5 200.17 0.5L200.17 0.5ZM211.57 0L211.57-35 217.07-35 217.07-20.75 222.97-20.75 222.97-35 228.47-35 228.47 0 222.97 0 222.97-15.75 217.07-15.75 217.07 0 211.57 0Z" opacity="1" transform="matrix(1,0,0,1,0,0)" fill="#ea3c12" class="undefined-text-0" data-fill-palette-color="primary" id="text-0"></path></svg></g></svg></g><g transform="matrix(1,0,0,1,0,77.72196980666811)"><svg viewBox="0 0 232.209792 20.744799235166305" height="20.744799235166305" width="232.209792"><g transform="matrix(1,0,0,1,0,0)"><svg width="232.209792" viewBox="1.56 -39.11 584.22 52.2" height="20.744799235166305" data-palette-color="#ea3c12"><path d="M31.88-35.77L19.53-15.63 19.53 0 13.45 0 13.45-15.53 1.56-35.77 8.5-35.77 14.79-23.75 16.94-18.95 17.43-18.95 19.68-23.73 26.1-35.77 31.88-35.77ZM44.97 0.49L44.97 0.49Q41.92 0.49 39.58-0.54 37.25-1.56 35.67-3.31 34.08-5.05 33.26-7.35 32.44-9.64 32.44-12.21L32.44-12.21Q32.44-15.16 33.49-17.74 34.54-20.31 36.44-22.23 38.33-24.15 40.94-25.26 43.55-26.37 46.68-26.37L46.68-26.37Q49.73-26.37 52.07-25.34 54.42-24.32 56-22.56 57.59-20.8 58.41-18.49 59.23-16.19 59.23-13.62L59.23-13.62Q59.23-10.64 58.16-8.07 57.1-5.49 55.2-3.59 53.29-1.68 50.68-0.6 48.07 0.49 44.97 0.49ZM45.99-3.74L45.99-3.74Q47.56-3.74 48.85-4.38 50.14-5.03 51.07-6.19 52-7.35 52.51-8.96 53.02-10.57 53.02-12.52L53.02-12.52Q53.02-14.43 52.52-16.16 52.02-17.9 51.07-19.23 50.12-20.56 48.75-21.35 47.39-22.14 45.65-22.14L45.65-22.14Q44.06-22.14 42.77-21.48 41.48-20.83 40.56-19.65 39.65-18.48 39.13-16.86 38.62-15.23 38.62-13.31L38.62-13.31Q38.62-11.38 39.12-9.64 39.62-7.91 40.57-6.59 41.53-5.27 42.89-4.5 44.26-3.74 45.99-3.74ZM65.82-8.62L65.82-25.88 71.72-25.88 71.72-9.55Q71.72-8.3 72.07-7.29 72.41-6.27 73.02-5.54 73.63-4.81 74.48-4.41 75.34-4 76.36-4L76.36-4Q77.24-4 78.08-4.3 78.93-4.59 79.71-5.07 80.49-5.54 81.2-6.16 81.9-6.79 82.54-7.47L82.54-7.47 82.54-25.88 88.45-25.88 88.45 0 83.66 0 82.78-4.37Q81.9-3.56 80.88-2.7 79.85-1.83 78.71-1.12 77.56-0.42 76.28 0.04 75 0.49 73.6 0.49L73.6 0.49Q72.02 0.49 70.6-0.15 69.18-0.78 68.12-1.95 67.06-3.13 66.44-4.81 65.82-6.49 65.82-8.62L65.82-8.62ZM96.6 0L96.6-25.88 101.38-25.88 102.21-18.16Q102.56-18.8 102.92-19.47 103.29-20.14 103.65-20.76 104.02-21.39 104.34-21.9 104.66-22.41 104.88-22.75L104.88-22.75Q105.39-23.51 106.03-24.18 106.68-24.85 107.44-25.33 108.2-25.81 109.07-26.09 109.95-26.37 110.98-26.37L110.98-26.37Q111.69-26.37 112.39-26.2 113.1-26.03 113.59-25.66L113.59-25.66 112.96-20.21Q112.52-20.34 111.93-20.37 111.35-20.41 110.88-20.41L110.88-20.41Q109.32-20.41 108.1-19.96 106.88-19.51 105.89-18.71 104.9-17.92 104.08-16.85 103.26-15.77 102.51-14.53L102.51-14.53 102.51 0 96.6 0ZM131.97-7.15L131.97-21.66 126.77-21.66 127.21-24.44Q129.14-24.93 130.3-25.54 131.46-26.15 132.23-27.04 133-27.93 133.57-29.21 134.14-30.49 134.9-32.32L134.9-32.32 137.73-32.32 137.73-25.88 147.03-25.88 145.98-21.66 137.9-21.66 137.9-8.33Q137.9-7.13 138.24-6.31 138.59-5.49 139.22-4.98 139.86-4.47 140.75-4.24 141.64-4 142.76-4L142.76-4Q143.84-4 144.9-4.2 145.96-4.39 146.91-4.76L146.91-4.76 146.91-1.78Q145.25-0.66 143.36-0.09 141.47 0.49 139.54 0.49L139.54 0.49Q135.85 0.49 133.91-1.51 131.97-3.52 131.97-7.15L131.97-7.15ZM174.15-5.32L174.15-2.37Q173.08-1.61 171.84-1.07 170.59-0.54 169.27-0.18 167.95 0.17 166.65 0.33 165.34 0.49 164.17 0.49L164.17 0.49Q161.46 0.49 159.13-0.34 156.8-1.17 155.08-2.78 153.35-4.39 152.38-6.75 151.4-9.11 151.4-12.16L151.4-12.16Q151.4-15.41 152.5-18.04 153.6-20.68 155.44-22.52 157.28-24.37 159.71-25.37 162.14-26.37 164.78-26.37L164.78-26.37Q166.98-26.37 168.87-25.65 170.76-24.93 172.14-23.51 173.52-22.09 174.3-19.97 175.08-17.85 175.08-15.04L175.08-15.04Q175.08-14.36 175.02-13.59 174.96-12.82 174.81-12.08L174.81-12.08 157.53-12.08Q157.53-10.11 158.22-8.59 158.92-7.08 160.19-6.07 161.46-5.05 163.24-4.53 165.02-4 167.17-4L167.17-4Q167.78-4 168.6-4.05 169.42-4.1 170.35-4.25 171.27-4.39 172.25-4.65 173.23-4.91 174.15-5.32L174.15-5.32ZM157.53-14.97L169.59-14.97Q169.59-16.75 169.14-18.09 168.69-19.43 167.9-20.34 167.12-21.24 166.09-21.69 165.05-22.14 163.85-22.14L163.85-22.14Q162.51-22.14 161.36-21.61 160.21-21.07 159.36-20.1 158.51-19.14 158.02-17.82 157.53-16.5 157.53-14.97L157.53-14.97ZM200.54-5.32L200.54-2.37Q198.81-0.98 196.69-0.24 194.56 0.49 192.12 0.49L192.12 0.49Q189.39 0.49 187.19-0.43 184.99-1.34 183.45-2.97 181.92-4.59 181.09-6.85 180.26-9.11 180.26-11.82L180.26-11.82Q180.26-15.01 181.38-17.69 182.5-20.36 184.44-22.29 186.38-24.22 189.02-25.29 191.66-26.37 194.68-26.37L194.68-26.37Q195.34-26.37 196.1-26.31 196.86-26.25 197.65-26.12 198.44-26 199.21-25.79 199.98-25.59 200.64-25.29L200.64-25.29 199.59-20.75 199.08-20.51Q198.64-20.83 198.04-21.13 197.44-21.44 196.76-21.66 196.08-21.88 195.34-22.01 194.61-22.14 193.9-22.14L193.9-22.14Q192.34-22.14 190.99-21.53 189.63-20.92 188.62-19.75 187.6-18.58 187.02-16.88 186.43-15.19 186.43-13.04L186.43-13.04Q186.43-10.79 187.07-9.11 187.7-7.42 188.83-6.29 189.95-5.15 191.49-4.58 193.02-4 194.83-4L194.83-4Q195.95-4 197.39-4.27 198.84-4.54 200.54-5.32L200.54-5.32ZM207.26 0L207.26-39.11 213.16-39.11 213.16-21.7Q214.07-22.51 215.15-23.33 216.24-24.15 217.45-24.83 218.66-25.51 220-25.94 221.34-26.37 222.78-26.37L222.78-26.37Q224.54-26.37 225.98-25.71 227.42-25.05 228.45-23.85 229.47-22.66 230.03-20.97 230.6-19.29 230.6-17.24L230.6-17.24 230.6 0 224.66 0 224.66-16.58Q224.66-17.9 224.3-18.88 223.93-19.87 223.3-20.53 222.66-21.19 221.77-21.52 220.88-21.85 219.85-21.85L219.85-21.85Q218.05-21.85 216.44-20.92 214.82-20 213.16-18.48L213.16-18.48 213.16 0 207.26 0ZM239.85 9.42L237.89 8.13Q238.77 7.18 239.54 6.14 240.31 5.1 240.92 4.06 241.53 3.03 241.95 2.01 242.36 1 242.56 0.07L242.56 0.07Q242.26-0.22 241.84-0.52 241.41-0.83 240.92-1.09 240.43-1.34 239.92-1.55 239.41-1.76 238.94-1.86L238.94-1.86Q238.75-2.25 238.66-2.75 238.58-3.25 238.58-3.66L238.58-3.66Q238.58-4.42 238.87-5.16 239.16-5.91 239.7-6.49 240.24-7.08 240.99-7.43 241.75-7.79 242.68-7.79L242.68-7.79Q243.43-7.79 244.19-7.5 244.95-7.2 245.56-6.58 246.17-5.96 246.54-4.99 246.9-4.03 246.9-2.66L246.9-2.66Q246.9-1.44 246.52-0.01 246.14 1.42 245.3 2.97 244.46 4.52 243.12 6.15 241.77 7.79 239.85 9.42L239.85 9.42ZM276.46 0.49L276.46 0.49Q273.41 0.49 271.08-0.54 268.75-1.56 267.16-3.31 265.57-5.05 264.76-7.35 263.94-9.64 263.94-12.21L263.94-12.21Q263.94-15.16 264.99-17.74 266.04-20.31 267.93-22.23 269.82-24.15 272.43-25.26 275.05-26.37 278.17-26.37L278.17-26.37Q281.22-26.37 283.57-25.34 285.91-24.32 287.5-22.56 289.08-20.8 289.9-18.49 290.72-16.19 290.72-13.62L290.72-13.62Q290.72-10.64 289.66-8.07 288.6-5.49 286.69-3.59 284.79-1.68 282.17-0.6 279.56 0.49 276.46 0.49ZM277.49-3.74L277.49-3.74Q279.05-3.74 280.34-4.38 281.64-5.03 282.57-6.19 283.49-7.35 284.01-8.96 284.52-10.57 284.52-12.52L284.52-12.52Q284.52-14.43 284.02-16.16 283.52-17.9 282.57-19.23 281.61-20.56 280.25-21.35 278.88-22.14 277.15-22.14L277.15-22.14Q275.56-22.14 274.26-21.48 272.97-20.83 272.06-19.65 271.14-18.48 270.63-16.86 270.11-15.23 270.11-13.31L270.11-13.31Q270.11-11.38 270.61-9.64 271.12-7.91 272.07-6.59 273.02-5.27 274.39-4.5 275.75-3.74 277.49-3.74ZM297.31-8.62L297.31-25.88 303.22-25.88 303.22-9.55Q303.22-8.3 303.56-7.29 303.9-6.27 304.51-5.54 305.12-4.81 305.98-4.41 306.83-4 307.86-4L307.86-4Q308.73-4 309.58-4.3 310.42-4.59 311.2-5.07 311.98-5.54 312.69-6.16 313.4-6.79 314.03-7.47L314.03-7.47 314.03-25.88 319.94-25.88 319.94 0 315.16 0 314.28-4.37Q313.4-3.56 312.37-2.7 311.35-1.83 310.2-1.12 309.05-0.42 307.77 0.04 306.49 0.49 305.1 0.49L305.1 0.49Q303.51 0.49 302.09-0.15 300.68-0.78 299.62-1.95 298.55-3.13 297.93-4.81 297.31-6.49 297.31-8.62L297.31-8.62ZM328.09 0L328.09-25.88 332.88-25.88 333.71-18.16Q334.05-18.8 334.42-19.47 334.78-20.14 335.15-20.76 335.51-21.39 335.83-21.9 336.15-22.41 336.37-22.75L336.37-22.75Q336.88-23.51 337.53-24.18 338.18-24.85 338.93-25.33 339.69-25.81 340.57-26.09 341.45-26.37 342.47-26.37L342.47-26.37Q343.18-26.37 343.89-26.2 344.6-26.03 345.08-25.66L345.08-25.66 344.45-20.21Q344.01-20.34 343.42-20.37 342.84-20.41 342.37-20.41L342.37-20.41Q340.81-20.41 339.59-19.96 338.37-19.51 337.38-18.71 336.39-17.92 335.58-16.85 334.76-15.77 334-14.53L334-14.53 334 0 328.09 0ZM382.43-5.32L382.43-2.37Q381.36-1.61 380.11-1.07 378.87-0.54 377.55-0.18 376.23 0.17 374.93 0.33 373.62 0.49 372.45 0.49L372.45 0.49Q369.74 0.49 367.41-0.34 365.07-1.17 363.35-2.78 361.63-4.39 360.66-6.75 359.68-9.11 359.68-12.16L359.68-12.16Q359.68-15.41 360.78-18.04 361.88-20.68 363.72-22.52 365.56-24.37 367.99-25.37 370.42-26.37 373.06-26.37L373.06-26.37Q375.26-26.37 377.15-25.65 379.04-24.93 380.42-23.51 381.8-22.09 382.58-19.97 383.36-17.85 383.36-15.04L383.36-15.04Q383.36-14.36 383.3-13.59 383.24-12.82 383.09-12.08L383.09-12.08 365.81-12.08Q365.81-10.11 366.5-8.59 367.2-7.08 368.47-6.07 369.74-5.05 371.52-4.53 373.3-4 375.45-4L375.45-4Q376.06-4 376.88-4.05 377.7-4.1 378.62-4.25 379.55-4.39 380.53-4.65 381.51-4.91 382.43-5.32L382.43-5.32ZM365.81-14.97L377.87-14.97Q377.87-16.75 377.42-18.09 376.96-19.43 376.18-20.34 375.4-21.24 374.36-21.69 373.33-22.14 372.13-22.14L372.13-22.14Q370.79-22.14 369.64-21.61 368.49-21.07 367.64-20.1 366.78-19.14 366.3-17.82 365.81-16.5 365.81-14.97L365.81-14.97ZM392.44 0L386.78 0 396.42-13.26 387.48-25.88 394.37-25.88 397.91-20.24 399.81-16.46 400.28-16.46 402.28-20.24 406.04-25.88 411.7-25.88 402.57-13.7 412.44 0 405.58 0 401.3-6.52 399.28-10.35 398.81-10.35 396.79-6.59 392.44 0ZM423.47-18.46L423.47-4.76Q424.08-4.47 424.77-4.27 425.47-4.08 426.13-3.96 426.79-3.83 427.4-3.78 428.01-3.74 428.45-3.74L428.45-3.74Q430.33-3.74 431.84-4.48 433.36-5.22 434.43-6.51 435.5-7.79 436.08-9.5 436.65-11.21 436.65-13.16L436.65-13.16Q436.65-14.99 436.18-16.58 435.7-18.16 434.85-19.34 433.99-20.51 432.77-21.18 431.55-21.85 430.08-21.85L430.08-21.85Q428.33-21.85 426.63-20.91 424.93-19.97 423.47-18.46L423.47-18.46ZM422.3-25.88L423.18-21.53Q424.05-22.36 425.08-23.22 426.1-24.07 427.29-24.77 428.47-25.46 429.83-25.92 431.18-26.37 432.72-26.37L432.72-26.37Q435.09-26.37 436.96-25.33 438.82-24.29 440.12-22.57 441.41-20.85 442.11-18.62 442.8-16.38 442.8-14.01L442.8-14.01Q442.8-10.89 441.66-8.23 440.51-5.57 438.53-3.63 436.55-1.68 433.89-0.6 431.23 0.49 428.23 0.49L428.23 0.49Q427.64 0.49 427 0.45 426.35 0.42 425.73 0.34 425.1 0.27 424.52 0.16 423.93 0.05 423.47-0.1L423.47-0.1 423.47 13.09 417.56 13.09 417.56-25.88 422.3-25.88ZM470.56-5.32L470.56-2.37Q469.49-1.61 468.24-1.07 467-0.54 465.68-0.18 464.36 0.17 463.05 0.33 461.75 0.49 460.58 0.49L460.58 0.49Q457.87 0.49 455.53-0.34 453.2-1.17 451.48-2.78 449.76-4.39 448.78-6.75 447.81-9.11 447.81-12.16L447.81-12.16Q447.81-15.41 448.91-18.04 450-20.68 451.85-22.52 453.69-24.37 456.12-25.37 458.55-26.37 461.19-26.37L461.19-26.37Q463.38-26.37 465.27-25.65 467.17-24.93 468.55-23.51 469.93-22.09 470.71-19.97 471.49-17.85 471.49-15.04L471.49-15.04Q471.49-14.36 471.43-13.59 471.37-12.82 471.22-12.08L471.22-12.08 453.93-12.08Q453.93-10.11 454.63-8.59 455.33-7.08 456.6-6.07 457.87-5.05 459.65-4.53 461.43-4 463.58-4L463.58-4Q464.19-4 465.01-4.05 465.82-4.1 466.75-4.25 467.68-4.39 468.66-4.65 469.63-4.91 470.56-5.32L470.56-5.32ZM453.93-14.97L466-14.97Q466-16.75 465.54-18.09 465.09-19.43 464.31-20.34 463.53-21.24 462.49-21.69 461.45-22.14 460.26-22.14L460.26-22.14Q458.91-22.14 457.77-21.61 456.62-21.07 455.77-20.1 454.91-19.14 454.42-17.82 453.93-16.5 453.93-14.97L453.93-14.97ZM478.25 0L478.25-25.88 483.03-25.88 483.86-18.16Q484.21-18.8 484.57-19.47 484.94-20.14 485.3-20.76 485.67-21.39 485.99-21.9 486.31-22.41 486.52-22.75L486.52-22.75Q487.04-23.51 487.68-24.18 488.33-24.85 489.09-25.33 489.85-25.81 490.72-26.09 491.6-26.37 492.63-26.37L492.63-26.37Q493.34-26.37 494.04-26.2 494.75-26.03 495.24-25.66L495.24-25.66 494.61-20.21Q494.17-20.34 493.58-20.37 492.99-20.41 492.53-20.41L492.53-20.41Q490.97-20.41 489.75-19.96 488.53-19.51 487.54-18.71 486.55-17.92 485.73-16.85 484.91-15.77 484.16-14.53L484.16-14.53 484.16 0 478.25 0ZM503.47-7.15L503.47-21.66 498.27-21.66 498.7-24.44Q500.63-24.93 501.79-25.54 502.95-26.15 503.72-27.04 504.49-27.93 505.06-29.21 505.64-30.49 506.4-32.32L506.4-32.32 509.23-32.32 509.23-25.88 518.53-25.88 517.48-21.66 509.4-21.66 509.4-8.33Q509.4-7.13 509.74-6.31 510.08-5.49 510.72-4.98 511.35-4.47 512.24-4.24 513.13-4 514.26-4L514.26-4Q515.33-4 516.39-4.2 517.45-4.39 518.41-4.76L518.41-4.76 518.41-1.78Q516.75-0.66 514.85-0.09 512.96 0.49 511.03 0.49L511.03 0.49Q507.35 0.49 505.41-1.51 503.47-3.52 503.47-7.15L503.47-7.15ZM525.07 0L525.07-25.88 531-25.88 531 0 525.07 0ZM528.02-30.98L528.02-30.98Q527.24-30.98 526.6-31.24 525.95-31.49 525.47-31.93 525-32.37 524.74-32.98 524.48-33.59 524.48-34.3L524.48-34.3Q524.48-35.03 524.76-35.66 525.05-36.28 525.55-36.76 526.05-37.23 526.72-37.5 527.39-37.77 528.17-37.77L528.17-37.77Q528.93-37.77 529.56-37.5 530.2-37.23 530.66-36.78 531.12-36.33 531.39-35.71 531.66-35.08 531.66-34.38L531.66-34.38Q531.66-33.64 531.38-33.02 531.1-32.4 530.6-31.95 530.1-31.49 529.44-31.24 528.78-30.98 528.02-30.98ZM537.57-1.22L538.62-5.66 539.06-5.93Q540.01-5.42 541.05-5 542.08-4.59 543.11-4.31 544.13-4.03 545.11-3.88 546.09-3.74 546.94-3.74L546.94-3.74Q549.16-3.74 550.42-4.66 551.68-5.59 551.68-7.03L551.68-7.03Q551.68-8.01 551.1-8.64 550.53-9.28 549.59-9.73 548.65-10.18 547.45-10.52 546.26-10.86 545-11.24 543.74-11.62 542.55-12.11 541.35-12.6 540.41-13.35 539.47-14.11 538.9-15.2 538.32-16.28 538.32-17.87L538.32-17.87Q538.32-19.65 539.09-21.22 539.86-22.78 541.29-23.91 542.72-25.05 544.76-25.71 546.8-26.37 549.33-26.37L549.33-26.37Q549.97-26.37 550.81-26.32 551.65-26.27 552.57-26.16 553.49-26.05 554.41-25.88 555.34-25.71 556.15-25.44L556.15-25.44 555.07-21.07 554.53-20.75Q553.8-21.12 552.96-21.39 552.12-21.66 551.28-21.81 550.43-21.97 549.64-22.06 548.85-22.14 548.24-22.14L548.24-22.14Q546.09-22.14 544.88-21.29 543.67-20.43 543.67-18.99L543.67-18.99Q543.67-17.99 544.26-17.35 544.84-16.7 545.78-16.25 546.72-15.8 547.94-15.47 549.16-15.14 550.42-14.76 551.68-14.38 552.9-13.89 554.12-13.4 555.06-12.65 556-11.89 556.59-10.79 557.17-9.69 557.17-8.08L557.17-8.08Q557.17-6.27 556.39-4.7 555.61-3.13 554.17-1.98 552.73-0.83 550.7-0.17 548.68 0.49 546.21 0.49L546.21 0.49Q544.18 0.49 541.91 0.05 539.64-0.39 537.57-1.22L537.57-1.22ZM584.85-5.32L584.85-2.37Q583.78-1.61 582.54-1.07 581.29-0.54 579.97-0.18 578.65 0.17 577.35 0.33 576.04 0.49 574.87 0.49L574.87 0.49Q572.16 0.49 569.83-0.34 567.5-1.17 565.78-2.78 564.05-4.39 563.08-6.75 562.1-9.11 562.1-12.16L562.1-12.16Q562.1-15.41 563.2-18.04 564.3-20.68 566.14-22.52 567.98-24.37 570.41-25.37 572.84-26.37 575.48-26.37L575.48-26.37Q577.68-26.37 579.57-25.65 581.46-24.93 582.84-23.51 584.22-22.09 585-19.97 585.78-17.85 585.78-15.04L585.78-15.04Q585.78-14.36 585.72-13.59 585.66-12.82 585.51-12.08L585.51-12.08 568.23-12.08Q568.23-10.11 568.92-8.59 569.62-7.08 570.89-6.07 572.16-5.05 573.94-4.53 575.72-4 577.87-4L577.87-4Q578.48-4 579.3-4.05 580.12-4.1 581.05-4.25 581.97-4.39 582.95-4.65 583.93-4.91 584.85-5.32L584.85-5.32ZM568.23-14.97L580.29-14.97Q580.29-16.75 579.84-18.09 579.39-19.43 578.6-20.34 577.82-21.24 576.79-21.69 575.75-22.14 574.55-22.14L574.55-22.14Q573.21-22.14 572.06-21.61 570.91-21.07 570.06-20.1 569.21-19.14 568.72-17.82 568.23-16.5 568.23-14.97L568.23-14.97Z" opacity="1" transform="matrix(1,0,0,1,0,0)" fill="#ea3c12" class="undefined-text-1" data-fill-palette-color="secondary" id="text-1"></path></svg></g></svg></g></svg></g></svg></g><g><svg viewBox="0 0 244.43135999999998 244.43135999999998" height="244.43135999999998" width="244.43135999999998"><g><svg viewBox="0 0 244.43135999999998 244.43135999999998" height="244.43135999999998" width="244.43135999999998"><g transform="matrix(1,0,0,1,77.63572294650147,64.6026559364499)"><svg viewBox="0 0 89.15991410699704 115.22604812710016" height="115.22604812710016" width="89.15991410699704"><g><svg xmlns="http://www.w3.org/2000/svg" xmlns:xlink="http://www.w3.org/1999/xlink" version="1.1" x="0" y="0" viewBox="12.983 1 75.68599999999999 97.813" enable-background="new 0 0 100 100" xml:space="preserve" height="115.22604812710016" width="89.15991410699704" class="icon-_$-0" data-fill-palette-color="accent" id="_$-0"><g fill="#ea3c12" data-fill-palette-color="accent"><polygon fill-rule="evenodd" clip-rule="evenodd" points="12.983,10.59 30.001,98.813 24.129,39.764 53.15,37.872 53.096,27.989    64.549,1 53.622,18.977  " fill="#ea3c12" data-fill-palette-color="accent"></polygon><polygon fill-rule="evenodd" clip-rule="evenodd" points="59.389,54.548 64.549,1.007 55.809,40.723 36.197,41.768 37.767,62.23    30.001,98.813 42.058,58.914  " fill="#ea3c12" data-fill-palette-color="accent"></polygon><polygon fill-rule="evenodd" clip-rule="evenodd" points="62.8,67.182 63.349,56.729 47.37,60.484 47.338,72.281 30.001,98.813    51.681,71.197  " fill="#ea3c12" data-fill-palette-color="accent"></polygon><polygon fill-rule="evenodd" clip-rule="evenodd" points="65.711,62.394 80.552,57.663 82.061,45.131 66.162,47.226  " fill="#ea3c12" data-fill-palette-color="accent"></polygon><polygon fill-rule="evenodd" clip-rule="evenodd" points="72.07,44.502 83.058,43.085 84.639,32.807 76.56,32.434 64.549,1    72.979,31.967  " fill="#ea3c12" data-fill-palette-color="accent"></polygon><polygon fill-rule="evenodd" clip-rule="evenodd" points="87.413,31.294 88.669,21.788 79.125,19.094 64.549,1 79.032,23.437    78.61,30.437  " fill="#ea3c12" data-fill-palette-color="accent"></polygon></g></svg></g></svg></g><g><path d="M30.256 202.141L51.231 182.569 55.76 187.422C57.29 189.062 57.997 190.701 57.879 192.34 57.771 193.98 56.868 195.591 55.17 197.175V197.175L53.103 199.105C51.4 200.694 49.727 201.485 48.085 201.48 46.441 201.484 44.855 200.666 43.325 199.027V199.027L41.876 197.474 33.337 205.442ZM44.872 194.678L46.321 196.23C46.827 196.772 47.356 197.039 47.908 197.03 48.457 197.016 49.091 196.673 49.812 196V196L52.293 193.685C53.014 193.012 53.4 192.403 53.452 191.857 53.499 191.306 53.269 190.76 52.764 190.219V190.219L51.315 188.666ZM42.395 214.503L61.17 192.812 64.584 195.767 45.808 217.458ZM49.891 220.434L65.972 196.676 70.656 199.846 64.665 216.522 64.731 216.566 74.354 202.349 77.682 204.602 61.602 228.36 57.764 225.763 65.022 205.391 64.956 205.347 53.219 222.687ZM66.687 230.914L78.699 204.862 83.836 207.23 80.631 224.657 80.703 224.69 87.891 209.1 91.541 210.783 79.529 236.835 75.32 234.895 79.176 213.616 79.104 213.583 70.337 232.597ZM83.917 238.237L95.861 211.74 101.765 213.325 98.839 242.244 94.478 241.073 95.169 235.361 95.149 235.438 90.194 234.107 87.951 239.32ZM91.72 230.489L95.64 231.542 97.382 217.327 97.296 217.303ZM109.161 244.03C107.02 243.772 105.461 242.965 104.485 241.608 103.501 240.257 103.144 238.468 103.412 236.242V236.242L105.253 220.941C105.521 218.714 106.293 217.061 107.569 215.982 108.839 214.896 110.545 214.481 112.686 214.739V214.739C114.834 214.997 116.396 215.805 117.372 217.162 118.355 218.513 118.713 220.302 118.445 222.528V222.528L118.082 225.543 113.846 225.033 114.243 221.733C114.455 219.973 113.815 219.003 112.324 218.823V218.823C110.833 218.644 109.982 219.434 109.77 221.195V221.195L107.855 237.106C107.647 238.84 108.288 239.797 109.779 239.976V239.976C111.27 240.156 112.12 239.378 112.328 237.644V237.644L112.852 233.29 117.089 233.799 116.604 237.829C116.336 240.056 115.564 241.709 114.288 242.788 113.018 243.874 111.309 244.288 109.161 244.03ZM120.511 244.431L119.929 215.749 124.444 215.657 124.942 240.242 132.353 240.092 132.436 244.19ZM136.475 243.616L132.09 215.264 144.24 213.385 144.867 217.435 137.178 218.624 138.337 226.117 144.447 225.172 145.073 229.222 138.964 230.167 140.31 238.875 147.999 237.686 148.625 241.736ZM163.558 237.102L154.864 214.1 150.455 215.766 149.006 211.933 162.039 207.007 163.488 210.841 159.078 212.507 167.772 235.509ZM175.798 232.034L162.221 206.762 173.052 200.943 174.992 204.554 168.138 208.236 171.726 214.914 177.172 211.989 179.112 215.599 173.666 218.525 177.836 226.287 184.69 222.605 186.629 226.216ZM195.764 220.096C194.029 221.378 192.341 221.859 190.7 221.542 189.058 221.233 187.57 220.177 186.238 218.373V218.373L177.081 205.977C175.749 204.173 175.177 202.441 175.365 200.78 175.544 199.118 176.501 197.647 178.236 196.365V196.365C179.976 195.08 181.666 194.596 183.307 194.914 184.95 195.222 186.437 196.279 187.769 198.083V198.083L189.574 200.525 186.141 203.06 184.166 200.386C183.113 198.96 181.982 198.693 180.774 199.585V199.585C179.566 200.478 179.489 201.637 180.542 203.063V203.063L190.064 215.954C191.102 217.359 192.224 217.615 193.432 216.723V216.723C194.64 215.831 194.726 214.682 193.688 213.277V213.277L191.082 209.749 194.514 207.214 196.926 210.479C198.258 212.283 198.83 214.015 198.642 215.675 198.463 217.337 197.504 218.811 195.764 220.096ZM204.381 212.497L184.092 192.214 187.285 189.021 195.545 197.278 198.961 193.861 190.701 185.603 193.886 182.417 214.175 202.7 210.99 205.886 201.86 196.758 198.443 200.176 207.573 209.304Z" fill="#ea3c12" data-fill-palette-color="accent"></path><path d="M51.827 60.641L31.374 41.107 35.898 36.371C37.419 34.778 38.99 33.991 40.609 34.01 42.229 34.029 43.866 34.829 45.521 36.41V36.41L47.538 38.336C49.193 39.916 50.067 41.515 50.161 43.132 50.259 44.754 49.547 46.361 48.026 47.954V47.954L46.573 49.475 54.897 57.426ZM43.645 46.679L45.098 45.158C45.596 44.636 45.824 44.105 45.784 43.563 45.743 43.021 45.374 42.416 44.675 41.749V41.749L42.25 39.433C41.547 38.761 40.923 38.417 40.38 38.402 39.837 38.386 39.316 38.639 38.818 39.161V39.161L37.365 40.682ZM61.755 50.64L43.462 29.071 46.853 26.195 65.145 47.765ZM66.544 46.863L50.89 23.309 55.534 20.222 68.5 31.932 68.574 31.883 59.204 17.783 62.501 15.592 78.156 39.146 74.354 41.672 58.477 27.429 58.411 27.473 69.841 44.671ZM79.185 38.879L67.501 13.124 72.58 10.82 83.505 24.454 83.587 24.417 76.593 9 80.198 7.364 91.882 33.119 87.725 35.005 74.332 18.405 74.26 18.437 82.791 37.243ZM91.723 33.357L88.941 4.838 94.765 3.297 106.449 29.461 102.151 30.598 99.937 25.374 99.958 25.45 95.075 26.742 95.704 32.303ZM94.601 22.895L98.467 21.872 92.975 8.872 92.898 8.893ZM112.8 29.27C110.685 29.521 109.001 29.107 107.747 28.03 106.494 26.96 105.737 25.327 105.477 23.133V23.133L103.689 8.056C103.429 5.862 103.782 4.095 104.749 2.754 105.716 1.42 107.258 0.628 109.373 0.377V0.377C111.489 0.126 113.173 0.536 114.426 1.606 115.679 2.683 116.436 4.319 116.697 6.513V6.513L117.048 9.479 112.87 9.975 112.484 6.723C112.278 4.982 111.439 4.199 109.967 4.373V4.373C108.496 4.548 107.863 5.506 108.07 7.247V7.247L109.93 22.935C110.134 24.649 110.971 25.419 112.443 25.245V25.245C113.915 25.07 114.549 24.126 114.345 22.411V22.411L113.836 18.115 118.014 17.619 118.485 21.59C118.745 23.785 118.391 25.549 117.424 26.883 116.457 28.223 114.916 29.019 112.8 29.27ZM119.97 28.276L120.535 0 124.98 0.089 124.495 24.327 131.807 24.473 131.727 28.511ZM131.986 28.75L136.247 0.791 148.225 2.617 147.617 6.609 140.033 5.454 138.907 12.841 144.941 13.76 144.332 17.753 138.299 16.833 136.989 25.427 144.572 26.583 143.964 30.576ZM153.058 33.617L161.513 10.896 157.16 9.276 158.569 5.491 171.44 10.281 170.032 14.066 165.679 12.446 157.225 35.167ZM161.791 37.039L175 12.032 185.714 17.692 183.828 21.263 177.045 17.68 173.555 24.287 178.951 27.138 177.065 30.709 171.668 27.858 167.608 35.545 174.391 39.127 172.504 42.699ZM177.681 47.186C175.956 45.936 174.998 44.49 174.807 42.848 174.612 41.212 175.163 39.499 176.46 37.71V37.71L185.37 25.416C186.667 23.627 188.125 22.568 189.745 22.238 191.36 21.914 193.031 22.377 194.755 23.627V23.627C196.48 24.878 197.44 26.321 197.635 27.957 197.826 29.599 197.273 31.314 195.976 33.103V33.103L194.223 35.522 190.817 33.053 192.738 30.401C193.767 28.982 193.682 27.837 192.482 26.968V26.968C191.282 26.098 190.167 26.373 189.139 27.792V27.792L179.868 40.584C178.854 41.982 178.948 43.116 180.147 43.986V43.986C181.347 44.855 182.454 44.591 183.467 43.193V43.193L186.006 39.69 189.413 42.159 187.066 45.397C185.77 47.186 184.313 48.243 182.698 48.567 181.078 48.896 179.406 48.436 177.681 47.186ZM183.52 51.239L203.296 31.021 206.474 34.13 198.425 42.359 201.83 45.69 209.879 37.461 213.057 40.57 193.281 60.787 190.103 57.678 199.006 48.577 195.601 45.246 186.698 54.347Z" fill="#ea3c12" data-fill-palette-color="accent"></path><path d="M4.114 122.115c0-6.052 4.907-10.959 10.959-10.959 6.052 0 10.959 4.907 10.959 10.959 0 6.052-4.907 10.959-10.959 10.959-6.052 0-10.959-4.907-10.959-10.959zM218.399 122.115c0-6.052 4.907-10.959 10.959-10.959 6.052 0 10.959 4.907 10.959 10.959 0 6.052-4.907 10.959-10.959 10.959-6.052 0-10.959-4.907-10.959-10.959z" fill="#ea3c12" data-fill-palette-color="accent"></path></g></svg></g></svg></g></svg></g><defs></defs></svg><rect width="395.52" height="142.7898608755779" fill="none" stroke="none" visibility="hidden"></rect></g></svg></g></svg>